<svg width="85" height="62" viewBox="0 0 85 62" fill="none" xmlns="http://www.w3.org/2000/svg">
<path d="M21.14 61.4401C17.62 61.4401 14.54 60.7801 11.9 59.4601C9.25999 57.9934 7.13333 56.0867 5.51999 53.7401C4.05333 51.3934 2.87999 48.6067 1.99999 45.3801C1.11999 42.1534 0.679993 38.7801 0.679993 35.2601C0.679993 28.0734 2.51333 21.3267 6.17999 15.0201C9.99333 8.7134 15.86 3.72673 23.78 0.0600586L25.76 4.02006C21.6533 5.92673 17.9867 8.7134 14.76 12.3801C11.68 15.9001 9.84666 19.6401 9.25999 23.6001C8.37999 26.6801 8.30666 29.6867 9.03999 32.6201C12.2667 29.1001 16.5933 27.3401 22.02 27.3401C27.0067 27.3401 31.1133 28.8801 34.34 31.9601C37.5667 34.8934 39.18 39.0001 39.18 44.2801C39.18 49.4134 37.4933 53.5934 34.12 56.8201C30.7467 59.9001 26.42 61.4401 21.14 61.4401ZM66.46 61.4401C62.94 61.4401 59.86 60.7801 57.22 59.4601C54.58 57.9934 52.4533 56.0867 50.84 53.7401C49.3733 51.3934 48.2 48.6067 47.32 45.3801C46.44 42.1534 46 38.7801 46 35.2601C46 28.0734 47.8333 21.3267 51.5 15.0201C55.3133 8.7134 61.18 3.72673 69.1 0.0600586L71.08 4.02006C66.9733 5.92673 63.3067 8.7134 60.08 12.3801C57 15.9001 55.1667 19.6401 54.58 23.6001C53.7 26.6801 53.6267 29.6867 54.36 32.6201C57.5867 29.1001 61.9133 27.3401 67.34 27.3401C72.3267 27.3401 76.4333 28.8801 79.66 31.9601C82.8867 34.8934 84.5 39.0001 84.5 44.2801C84.5 49.4134 82.8133 53.5934 79.44 56.8201C76.0667 59.9001 71.74 61.4401 66.46 61.4401Z" fill="#603809"/>
</svg>
